<svg width="70" height="70" viewBox="0 0 70 70" fill="none" xmlns="http://www.w3.org/2000/svg">
<path d="M70 34.9984C70 25.7162 66.3142 16.8142 59.7535 10.2507C53.1927 3.68723 44.2945 -0.000107129 35.0162 -0.000107129C26.207 -0.00824571 17.719 3.30871 11.2477 9.2882C4.77635 15.2677 0.798137 23.4695 0.107686 32.2553C-0.582765 41.0411 2.06537 49.7641 7.52313 56.6818C12.9809 63.5996 20.8465 68.2028 29.5487 69.572V45.113H20.6728V34.9984H29.5537V27.2888C29.5537 18.5191 34.7763 13.6693 42.7676 13.6693C46.5958 13.6693 50.599 14.3543 50.599 14.3543V22.9689H46.186C41.838 22.9689 40.4887 25.6688 40.4887 28.4337V34.9984H50.1892L48.6399 45.113H40.4837V69.572C48.7124 68.2684 56.2061 64.0701 61.6168 57.7323C67.0276 51.3945 70.0002 43.3332 70 34.9984Z" fill="#1877F2"/>
<path d="M48.6349 45.1131L50.1842 34.9985H40.4837V28.4338C40.4837 25.6689 41.8331 22.969 46.181 22.969H50.594V14.3494C50.594 14.3494 46.5909 13.6644 42.7626 13.6644C34.7663 13.6644 29.5487 18.5142 29.5487 27.2839V34.9985H20.6729V45.1131H29.5537V69.5721C33.1764 70.1425 36.866 70.1425 40.4887 69.5721V45.1131H48.6349Z" fill="white"/>
</svg>
